<?xml version="1.0" encoding="utf-8"?>
<!-- Generator: Adobe Illustrator 16.0.0, SVG Export Plug-In . SVG Version: 6.00 Build 0)  -->
<!DOCTYPE svg PUBLIC "-//W3C//DTD SVG 1.1//EN" "http://www.w3.org/Graphics/SVG/1.1/DTD/svg11.dtd">
<svg version="1.1" id="Calque_1" xmlns="http://www.w3.org/2000/svg" xmlns:xlink="http://www.w3.org/1999/xlink" x="0px" y="0px"
	 width="595.275px" height="841.89px" viewBox="0 0 595.275 841.89" enable-background="new 0 0 595.275 841.89"
	 xml:space="preserve">
<g>
	<g>
		<g>
			<path fill="#026D96" d="M113.51,424.935c-15.951,40.691-10.77,75.843,26.618,98.904c50.958,31.428,130.433,20.922,183.774,6.473
				c54.814-14.848,96.536-35.753,131.27-82.608c16.076-21.688,26.577-48.308,24.747-75.584
				c-1.83-27.263-18.649-50.007-41.382-64.033c-27.238-16.8-61.355-20.028-92.557-17.309c-19.871,1.732-39.167,7.142-58.369,12.242
				c-22.536,5.988-12.052,3.787-24.616,7.164c3.054-0.688,6.123-1.307,9.205-1.855c3.365-0.623,6.756-1.084,10.145-1.544
				c13.95-1.896,28.096-2.069,42.111-0.906c23.472,1.946,46.745,9.338,65.835,23.317c36.049,26.399,39.682,72.259,21.92,110.465
				c-10.163,21.857-18.904,45.275-42.554,62.982c-23.415,17.528-36.532,23.234-46.232,26.467
				c-9.701,3.236-25.629,4.715-32.345,5.189c-87.716,4.176-118.261-9.379-141.938-28.899
				C125.465,485.879,117.514,450.995,113.51,424.935z"/>
		</g>
	</g>
	<path fill="#1E88BC" d="M286.713,493.517H153.569c-4.063,0-7.29-1.445-9.696-4.342c-2.397-2.898-3.228-6.38-2.491-10.446
		l19.206-107.211h25.896l-15.902,88.759c-0.373,1.999,0.03,3.744,1.199,5.24c1.169,1.499,2.8,2.244,4.893,2.244h114.658
		L286.713,493.517z"/>
	<path fill="#1E88BC" d="M282.791,371.517l-3.224,18.128h-61.897c-1.461,0-2.775,0.519-3.936,1.548
		c-1.161,1.032-1.868,2.237-2.126,3.609l-6.964,38.688c-0.258,1.377,0.021,2.58,0.838,3.609c0.816,1.033,1.958,1.546,3.419,1.546
		h61.897l-3.224,18.059h-74.796c-2.838,0-5.092-1.009-6.771-3.033c-1.673-2.024-2.254-4.456-1.739-7.294l11.606-64.535
		c0.515-2.84,1.953-5.268,4.319-7.291c2.362-2.022,4.962-3.035,7.803-3.035H282.791z"/>
	<path fill="#FFCC18" d="M288.729,379.1l18.075-2.169l-14.23,79.774h-18.076L288.729,379.1z"/>
	<g>
		<g>
			<path fill="#FFFFFF" d="M82.597,516.688c-0.573,0.473-0.876,1.129-0.876,1.895l0,0c0,0.768,0.312,1.432,0.9,1.918
				c0.005-0.002,1.771,0.631,1.771,0.631l1.792-0.68l0.824-1.869c0-0.758-0.289-1.406-0.835-1.879c-0.001,0-1.78-0.656-1.78-0.656
				L82.597,516.688z M84.011,518.837c-0.096-0.08-0.122-0.135-0.122-0.254c0.083-0.219,0.502-0.365,0.502-0.365l0.366,0.132
				c0.037,0.032,0.081,0.069,0.081,0.233l-0.093,0.246l-0.354,0.134L84.011,518.837z M82.621,520.501L82.621,520.501L82.621,520.501
				z"/>
			<path fill="#FFFFFF" d="M84.104,519.233c-1.201,0-1.976,0.832-1.976,2.121v9.641c0,1.295,0.775,2.133,1.976,2.133h0.589
				c1.201,0,1.976-0.838,1.976-2.133v-9.641c0-1.289-0.775-2.121-1.976-2.121H84.104z M84.296,521.354c0,0,0.095,0.012,0.189,0.022
				c0.001,0.343,0.014,9.509,0.014,9.581c-0.087,0-0.105,0-0.188,0.001C84.31,530.573,84.296,521.354,84.296,521.354z"/>
			<path enable-background="new    " d="M85.923,518.583c0,0.434-0.152,0.786-0.458,1.058c-0.306,0.271-0.664,0.406-1.073,0.406
				c-0.417,0-0.777-0.127-1.079-0.381c-0.338-0.28-0.507-0.642-0.507-1.083c0-0.439,0.16-0.793,0.479-1.057
				c0.32-0.262,0.689-0.394,1.107-0.394c0.409,0,0.767,0.132,1.073,0.394C85.771,517.79,85.923,518.144,85.923,518.583z
				 M85.584,530.995c0,0.699-0.296,1.049-0.892,1.049h-0.589c-0.595,0-0.892-0.35-0.892-1.049v-9.641
				c0-0.691,0.296-1.036,0.892-1.036h0.589c0.595,0,0.892,0.345,0.892,1.036V530.995z"/>
		</g>
		<g>
			<path fill="#FFFFFF" d="M94.043,518.183c-2.182,0-3.776,0.381-4.875,1.164c-1.119,0.803-1.708,2.031-1.708,3.556v8.091
				c0,1.297,0.774,2.135,1.973,2.135h0.629c1.199,0,1.973-0.838,1.973-2.135v-8.113c0.057-0.006,2.029-0.156,2.029-0.156h3.913
				l1.904,0.16l0.05,8.109c0,1.297,0.775,2.135,1.976,2.135h0.623c1.201,0,1.976-0.838,1.976-2.135v-8.116
				c0-1.536-0.631-2.776-1.825-3.588c-1.095-0.743-2.637-1.106-4.716-1.106H94.043z M89.628,522.902
				c0-1.091,0.458-1.546,0.801-1.792c0.696-0.496,1.946-0.758,3.614-0.758h3.921c1.607,0,2.783,0.245,3.496,0.73
				c0.597,0.405,0.876,0.977,0.876,1.794c0,0,0,8.013,0,8.081c-0.1,0-0.126,0-0.223,0.001c-0.001-0.382-0.015-8.091-0.015-8.091
				c0-0.97-0.557-1.715-1.527-2.041c-0.001,0-2.596-0.271-2.596-0.271h-3.913l-2.635,0.254c-0.996,0.326-1.563,1.08-1.563,2.07
				v8.113c0,0-0.111-0.008-0.223-0.018C89.643,530.622,89.628,522.902,89.628,522.902z"/>
			<path enable-background="new    " d="M103.421,530.993c0,0.701-0.297,1.051-0.892,1.051h-0.623c-0.594,0-0.892-0.35-0.892-1.051
				v-8.125c0-0.498-0.264-0.836-0.789-1.014c-0.426-0.143-1.176-0.215-2.25-0.215h-3.913c-1.117,0-1.885,0.068-2.303,0.203
				c-0.54,0.176-0.81,0.522-0.81,1.037v8.113c0,0.701-0.297,1.051-0.889,1.051h-0.629c-0.593,0-0.889-0.35-0.889-1.051v-8.091
				c0-1.183,0.418-2.073,1.253-2.673c0.9-0.641,2.316-0.962,4.247-0.962h3.921c1.836,0,3.206,0.306,4.106,0.919
				c0.9,0.611,1.35,1.508,1.35,2.69V530.993z"/>
		</g>
		<g>
			<path fill="#FFFFFF" d="M111.657,514.731l-1.176,0.008c-1.644,0-2.95,0.475-3.884,1.408c-0.867,0.867-1.309,2.012-1.309,3.404
				v11.439c0,1.299,0.774,2.137,1.973,2.137h0.629c1.199,0,1.973-0.838,1.973-2.133c0,0,0-6.479,0-8.169c1.07,0,2.562,0,2.562,0
				c0.908,0,1.967-0.562,1.967-2.144v-0.268c0-0.727-0.287-1.25-0.713-1.622c0.412-0.335,0.713-0.872,0.713-1.708v-0.256
				c0-1.298-0.773-2.137-1.969-2.137C112.323,514.696,111.657,514.731,111.657,514.731z M107.457,519.552
				c0-0.807,0.22-1.418,0.673-1.869c0.521-0.521,1.289-0.774,2.351-0.774l1.218-0.007c0,0,0.274-0.016,0.516-0.028
				c0.003,0.106,0.007,0.212,0.007,0.212l-0.914-0.02l-2.331,0.407c-0.808,0.38-1.271,1.071-1.271,1.896v1.085c0,0,4.14,0,4.507,0
				c0.004,0.1,0.006,0.179,0.007,0.202c-0.4,0-4.527,0.001-4.527,0.001v10.338c0,0-0.111-0.01-0.223-0.018
				C107.472,530.622,107.457,519.552,107.457,519.552z"/>
			<path enable-background="new    " d="M113.307,520.683c0,0.706-0.294,1.059-0.882,1.059h-3.646v9.254
				c0,0.699-0.297,1.049-0.889,1.049h-0.629c-0.592,0-0.889-0.351-0.889-1.053v-11.439c0-1.099,0.331-1.978,0.992-2.637
				c0.726-0.727,1.766-1.092,3.117-1.092c0.532,0,0.931-0.002,1.197-0.007c0.266-0.005,0.515-0.019,0.745-0.039
				c0.59,0,0.884,0.351,0.884,1.052v0.256c0,0.709-0.295,1.064-0.885,1.064h-1.113c-0.814,0-1.437,0.102-1.869,0.305
				s-0.648,0.509-0.648,0.915h3.63c0.59,0,0.885,0.35,0.885,1.046V520.683z"/>
		</g>
		<g>
			<path fill="#FFFFFF" d="M121.458,518.183c-2.132,0-3.83,0.57-5.046,1.693c-1.056,0.967-1.592,2.145-1.592,3.494v4.711
				l0.593,2.252c0.479,0.855,1.205,1.531,2.155,2.008c1.04,0.522,2.353,0.787,3.9,0.787h3.987c1.574,0,2.894-0.283,3.92-0.841
				c0.901-0.483,1.579-1.177,2.011-2.058c0-0.001,0.479-2.148,0.479-2.148v-4.736c0-1.72-0.572-3.041-1.701-3.925
				c-1.064-0.832-2.604-1.237-4.709-1.237H121.458z M118.541,530.403c-0.563-0.283-0.968-0.652-1.236-1.131l-0.315-1.191v-4.711
				c0-0.738,0.283-1.34,0.891-1.897c0.806-0.745,2.009-1.12,3.579-1.12h3.998c1.558,0,2.724,0.268,3.372,0.775
				c0.584,0.458,0.87,1.184,0.87,2.217v4.736l-0.256,1.192c-0.232,0.474-0.59,0.835-1.095,1.105c-0.711,0.386-1.682,0.58-2.89,0.58
				h-3.987C120.262,530.959,119.277,530.772,118.541,530.403z"/>
			<path fill="#FFFFFF" d="M121.497,520.556c-1.333,0-2.352,0.257-3.114,0.787c-0.955,0.661-1.156,1.469-1.156,2.027v4.698
				c0,0.763,0.388,1.445,1.093,1.922c0.755,0.515,1.799,0.766,3.188,0.766h3.898c1.178,0,2.14-0.245,2.859-0.727
				c0.959-0.642,1.162-1.421,1.162-1.961v-4.913c0-0.934-0.506-1.686-1.426-2.118c-0.691-0.323-1.544-0.481-2.605-0.481H121.497z
				 M119.537,528.195l-0.142-4.825c0-0.084,0.171-0.209,0.225-0.246c0.264-0.183,0.8-0.4,1.876-0.4h3.898
				c0.716,0,1.297,0.096,1.683,0.277c0,0,0.178,5.01,0.179,5.048c-0.012,0.011-0.198,0.179-0.198,0.179
				c-0.353,0.235-0.924,0.359-1.653,0.359h-3.898C120.354,528.587,119.799,528.374,119.537,528.195z"/>
			<path enable-background="new    " d="M130.782,528.081c0,0.616-0.123,1.174-0.368,1.671c-0.332,0.676-0.85,1.203-1.556,1.582
				c-0.872,0.474-2.007,0.71-3.403,0.71h-3.987c-1.383,0-2.521-0.224-3.414-0.672c-0.756-0.379-1.322-0.902-1.695-1.569
				c-0.303-0.54-0.455-1.114-0.455-1.722v-4.711c0-1.037,0.414-1.938,1.242-2.697c1.016-0.938,2.453-1.405,4.312-1.405h3.998
				c1.836,0,3.184,0.336,4.04,1.007c0.857,0.671,1.286,1.695,1.286,3.07V528.081z M128.342,528.068v-4.913
				c0-0.505-0.268-0.885-0.804-1.137c-0.537-0.252-1.251-0.379-2.144-0.379h-3.898c-1.094,0-1.926,0.198-2.494,0.594
				c-0.462,0.319-0.691,0.698-0.691,1.137v4.698c0,0.404,0.204,0.745,0.615,1.022c0.569,0.388,1.429,0.58,2.581,0.58h3.898
				c0.964,0,1.716-0.181,2.256-0.543C128.114,528.825,128.342,528.473,128.342,528.068z"/>
		</g>
		<g>
			<path fill="#FFFFFF" d="M138.988,518.183c-1.843,0-3.347,0.424-4.47,1.259c-1.204,0.897-1.84,2.207-1.84,3.789l-0.034,7.745
				c0,1.59,1.063,2.152,1.973,2.152h0.663c1.199,0,1.973-0.838,1.973-2.135v-7.758c0-0.192,0.044-0.227,0.072-0.246
				c0.082-0.061,0.44-0.266,1.528-0.266h1.1c1.202,0,1.978-0.833,1.978-2.123v-0.28c0-1.298-0.777-2.138-1.98-2.138H138.988z
				 M134.847,523.235c0-0.911,0.307-1.563,0.966-2.055c0.741-0.549,1.81-0.828,3.176-0.828c0,0,0.516,0,0.765,0
				c0.003,0.1,0.005,0.164,0.006,0.201c-0.287,0-0.907,0.002-0.907,0.002c-1.271,0-2.195,0.228-2.824,0.694
				c-0.432,0.323-0.945,0.928-0.945,1.985v7.758c0,0-0.128-0.01-0.254-0.018C134.831,530.624,134.847,523.235,134.847,523.235z"/>
			<path enable-background="new    " d="M140.846,520.601c0,0.693-0.298,1.039-0.894,1.039h-1.1c-1.021,0-1.747,0.161-2.177,0.48
				c-0.339,0.254-0.507,0.625-0.507,1.115v7.758c0,0.701-0.296,1.051-0.888,1.051h-0.663c-0.593,0-0.889-0.354-0.889-1.063
				l0.034-7.75c0-1.249,0.467-2.222,1.403-2.919c0.937-0.695,2.211-1.044,3.823-1.044h0.961c0.598,0,0.896,0.352,0.896,1.053
				V520.601z"/>
		</g>
		<g>
			<path fill="#FFFFFF" d="M157.633,518.183l-2.417,0.402c0,0-0.608,0.313-1.111,0.569c-0.569-0.292-1.293-0.666-1.293-0.666
				l-2.229-0.306h-1.64c-2.015,0-3.582,0.456-4.657,1.354c-1.096,0.914-1.652,2.226-1.652,3.897v7.56
				c0,1.297,0.774,2.135,1.973,2.135h0.629c1.199,0,1.973-0.838,1.973-2.135v-7.848c0-0.104,0-0.143,0.204-0.229
				c0.005,0,1.593-0.192,1.593-0.192h1.585c0.842,0,1.063,0.162,1.073,0.17c0,0,0,0,0,0.002c0,0.041,0.086,0.555,0.086,0.555v7.543
				c0,1.297,0.775,2.135,1.977,2.135h0.623c1.201,0,1.976-0.838,1.976-2.135v-7.506c0-0.313,0.058-0.509,0.172-0.582
				c0.051-0.033,0.319-0.182,1.141-0.182h1.589l1.483,0.248l0.122,8.021c0,1.297,0.777,2.135,1.98,2.135h0.625
				c1.197,0,1.97-0.838,1.97-2.135v-7.56c0-1.655-0.54-2.963-1.605-3.884c-1.058-0.908-2.573-1.367-4.508-1.367H157.633z
				 M154.735,521.243l1.19-0.607l1.708-0.283h1.662c1.402,0,2.443,0.282,3.092,0.84c0.573,0.495,0.853,1.229,0.853,2.241
				c0,0,0,7.456,0,7.524c-0.101,0-0.127,0-0.222,0.001c-0.001-0.379-0.015-7.839-0.015-7.839c0-0.921-0.47-1.664-1.324-2.09
				c-0.003-0.002-2.45-0.475-2.45-0.475h-1.589c-1.016,0-1.775,0.174-2.321,0.53c-0.526,0.339-1.161,1.034-1.161,2.401v7.506
				c0,0-0.111-0.008-0.222-0.018c-0.001-0.352-0.015-7.525-0.015-7.525c0-1.033-0.314-1.8-0.935-2.277
				c-0.544-0.416-1.327-0.617-2.394-0.617h-1.585l-2.44,0.364c-0.984,0.418-1.525,1.209-1.525,2.226v7.848
				c0,0-0.111-0.008-0.222-0.018c0-0.352-0.015-7.542-0.015-7.542c0-1.013,0.285-1.741,0.873-2.232
				c0.675-0.563,1.775-0.849,3.267-0.849h1.64l1.572,0.203l1.814,0.947L154.735,521.243z"/>
			<path enable-background="new    " d="M164.324,530.993c0,0.701-0.294,1.051-0.885,1.051h-0.625c-0.597,0-0.896-0.35-0.896-1.051
				v-7.873c0-0.506-0.242-0.879-0.725-1.12c-0.483-0.239-1.137-0.36-1.965-0.36h-1.589c-0.792,0-1.368,0.119-1.728,0.354
				c-0.447,0.289-0.669,0.786-0.669,1.494v7.506c0,0.701-0.297,1.051-0.892,1.051h-0.623c-0.595,0-0.892-0.35-0.892-1.051v-7.543
				c0-0.684-0.171-1.156-0.512-1.418c-0.341-0.262-0.919-0.393-1.732-0.393h-1.585c-0.907,0-1.579,0.094-2.018,0.279
				c-0.575,0.244-0.863,0.652-0.863,1.227v7.848c0,0.701-0.296,1.051-0.888,1.051h-0.629c-0.592,0-0.888-0.35-0.888-1.051v-7.56
				c0-1.343,0.421-2.363,1.262-3.064c0.879-0.733,2.199-1.102,3.962-1.102h1.64c0.735,0,1.367,0.085,1.9,0.255
				c0.533,0.169,1.072,0.448,1.619,0.838c0.438-0.313,0.928-0.563,1.468-0.75c0.662-0.229,1.348-0.343,2.062-0.343h1.662
				c1.677,0,2.943,0.368,3.799,1.102c0.82,0.71,1.23,1.73,1.23,3.064V530.993z"/>
		</g>
		<g>
			<path fill="#FFFFFF" d="M176.247,518.183c-0.783,0-1.245,0.354-1.494,0.65l-0.475,1.487v0.28c0,0.518,0.204,0.896,0.431,1.242
				c-0.913,0-2.307,0-2.307,0c-1.838,0-3.333,0.458-4.443,1.359c-1.096,0.894-1.674,2.105-1.674,3.504v1.635
				c0,1.234,0.494,2.318,1.429,3.137c0.667,0.588,1.553,1.037,2.63,1.333c0.004,0,2.144,0.317,2.144,0.317h5.863
				c2.151,0,3.755-0.521,4.768-1.553c0.816-0.833,1.229-1.967,1.229-3.368v-5.015c0-1.569-0.635-2.861-1.838-3.738
				c-1.172-0.854-2.79-1.271-4.944-1.271H176.247z M176.447,520.32l1.118,0.032c1.655,0,2.889,0.287,3.666,0.854
				c0.647,0.472,0.948,1.102,0.948,1.986v5.015c0,0.827-0.199,1.432-0.609,1.849c-0.587,0.6-1.672,0.903-3.219,0.903h-5.863
				l-1.566-0.239c-0.76-0.209-1.356-0.501-1.777-0.871c-0.472-0.413-0.69-0.893-0.69-1.508v-1.635c0-0.756,0.278-1.336,0.875-1.821
				c0.712-0.578,1.747-0.872,3.074-0.872h9.75l-0.185-1.245c-0.122-0.818-0.658-1.464-1.507-1.815c-0.006,0-2.396-0.396-2.396-0.396
				s-1.285,0-1.608,0C176.451,520.438,176.447,520.32,176.447,520.32z"/>
			<path fill="#FFFFFF" d="M180.857,524.216h-8.505l-1.846,0.354c-1.58,0.581-1.815,1.577-1.815,2.119v1.618
				c0,0.611,0.272,1.705,2.097,2.175c0.001,0,1.494,0.265,1.494,0.265l6.085,0.009l2.25-0.394c0.842-0.396,1.324-1.135,1.324-2.029
				v-4.117H180.857z M171.25,526.608c0.003,0,1.101-0.225,1.101-0.225s5.77,0,7.421,0c0,0.896-0.003,1.99-0.003,1.99
				c-0.073,0.025-1.402,0.213-1.402,0.213s-5.912,0-5.931,0c0.001,0,0.002,0,0.002,0c0-0.013-1.106-0.204-1.106-0.204
				c-0.004-0.001-0.525-0.216-0.525-0.216s0.051-1.413,0.052-1.455C170.869,526.808,171.25,526.608,171.25,526.608z"/>
			<path enable-background="new    " d="M183.263,528.207c0,1.114-0.306,1.983-0.918,2.608c-0.806,0.819-2.137,1.229-3.995,1.229
				h-5.863c-0.57,0-1.188-0.094-1.857-0.279c-0.921-0.252-1.656-0.621-2.203-1.104c-0.706-0.617-1.058-1.391-1.058-2.32v-1.635
				c0-1.082,0.425-1.97,1.274-2.662c0.915-0.744,2.168-1.116,3.759-1.116h8.492c-0.066-0.442-0.349-0.767-0.85-0.975
				c-0.5-0.21-1.161-0.313-1.981-0.313h-1.814c-0.591,0-0.887-0.346-0.887-1.039v-0.28c0-0.701,0.296-1.053,0.885-1.053h1.317
				c1.9,0,3.334,0.354,4.306,1.063c0.928,0.676,1.393,1.63,1.393,2.861V528.207z M180.857,528.333V525.3h-8.505
				c-0.453,0-0.944,0.098-1.476,0.29c-0.734,0.271-1.1,0.637-1.1,1.1v1.618c0,0.529,0.427,0.904,1.282,1.125
				c0.288,0.074,0.744,0.154,1.369,0.238h5.94c0.782,0,1.378-0.097,1.79-0.289C180.623,529.162,180.857,528.813,180.857,528.333z"/>
		</g>
		<g>
			<path fill="#FFFFFF" d="M187.826,514.692c-1.199,0-1.973,0.838-1.973,2.133c0,0,0,0.784,0,1.513
				c-0.615,0.071-1.039,0.331-1.258,0.587l-0.486,1.49v0.268c0,1.194,0.707,1.921,1.744,2.047c0,1.576,0,8.266,0,8.266
				c0,1.295,0.774,2.133,1.973,2.133h0.629c1.199,0,1.973-0.838,1.973-2.133c0,0,0-6.479,0-8.169c1.105,0,2.708,0,2.708,0
				c1.202,0,1.978-0.841,1.978-2.144v-0.268c0-1.293-0.776-2.131-1.978-2.131c0,0-1.603,0-2.708,0c0-0.713,0-1.459,0-1.459
				l-0.48-1.488c-0.249-0.294-0.71-0.645-1.493-0.645H187.826z M188.022,520.454v-3.629c0,0,0.111,0.01,0.224,0.02
				c0.001,0.318,0.014,2.524,0.014,2.524v1.085c0,0,4.322,0,4.679,0c0.003,0.114,0.007,0.229,0.007,0.229l-3.602-0.025h-1.084
				v10.338c0,0-0.111-0.01-0.222-0.018c-0.001-0.355-0.015-10.32-0.015-10.32s-1.505,0-1.736,0
				c-0.004-0.119-0.008-0.242-0.008-0.242l0.66,0.039H188.022z"/>
			<path enable-background="new    " d="M186.093,521.741c-0.6,0-0.899-0.353-0.899-1.059v-0.268c0-0.696,0.3-1.046,0.899-1.046
				h0.845v-2.544c0-0.699,0.295-1.048,0.889-1.048h0.629c0.592,0,0.889,0.349,0.889,1.048v2.544h3.792
				c0.595,0,0.894,0.35,0.894,1.046v0.268c0,0.706-0.298,1.059-0.894,1.059h-3.792v9.254c0,0.699-0.296,1.049-0.889,1.049h-0.629
				c-0.593,0-0.889-0.35-0.889-1.049v-9.254H186.093z"/>
		</g>
		<g>
			<path fill="#FFFFFF" d="M195.769,516.688c-0.574,0.473-0.876,1.129-0.876,1.895l0,0c0,0.77,0.312,1.432,0.901,1.92
				c0.003-0.004,1.769,0.629,1.769,0.629l1.793-0.68c0.001-0.002,0.824-1.869,0.824-1.869l-0.833-1.877
				c-0.003-0.002-1.783-0.658-1.783-0.658L195.769,516.688z M197.184,518.837c-0.097-0.08-0.122-0.134-0.122-0.254
				c0.083-0.219,0.501-0.365,0.501-0.365l0.367,0.132c0,0.007,0.081,0.233,0.081,0.233l-0.094,0.247
				c-0.002,0-0.354,0.133-0.354,0.133L197.184,518.837z M195.794,520.503L195.794,520.503L195.794,520.503z"/>
			<path fill="#FFFFFF" d="M197.275,519.233c-1.2,0-1.975,0.832-1.975,2.121v9.641c0,1.295,0.775,2.133,1.975,2.133h0.591
				c1.2,0,1.975-0.838,1.975-2.133v-9.641c0-1.289-0.775-2.121-1.975-2.121H197.275z M197.469,521.354c0,0,0.095,0.012,0.189,0.022
				c0.001,0.343,0.014,9.509,0.014,9.581c-0.087,0-0.105,0-0.188,0.001C197.482,530.573,197.469,521.354,197.469,521.354z"/>
			<path enable-background="new    " d="M199.095,518.583c0,0.434-0.154,0.786-0.458,1.058c-0.306,0.271-0.663,0.406-1.074,0.406
				c-0.417,0-0.776-0.127-1.078-0.381c-0.339-0.28-0.507-0.642-0.507-1.083c0-0.439,0.16-0.793,0.479-1.057
				c0.32-0.262,0.688-0.394,1.106-0.394c0.411,0,0.768,0.132,1.074,0.394C198.941,517.79,199.095,518.144,199.095,518.583z
				 M198.756,530.995c0,0.699-0.297,1.049-0.891,1.049h-0.591c-0.593,0-0.891-0.35-0.891-1.049v-9.641
				c0-0.691,0.297-1.036,0.891-1.036h0.591c0.593,0,0.891,0.345,0.891,1.036V530.995z"/>
		</g>
		<g>
			<path fill="#FFFFFF" d="M207.479,518.183c-2.287,0-3.954,0.398-5.097,1.22c-1.144,0.816-1.75,2.079-1.75,3.647v4.953
				c0,2.187,1.021,3.361,1.877,3.961c1.063,0.738,2.502,1.097,4.404,1.097c0,0,4.776,0,6.359,0c0,0.732,0,1.506,0,1.506
				c0,1.288,0.775,2.12,1.974,2.12h0.661c1.199,0,1.974-0.834,1.974-2.125V523.06c0-2.051-0.932-3.155-1.714-3.72
				c-1.081-0.778-2.663-1.157-4.84-1.157H207.479z M203.75,530.185c-0.405-0.284-0.949-0.822-0.949-2.182v-4.953
				c0-1.149,0.481-1.626,0.843-1.883c0.744-0.534,2.068-0.814,3.835-0.814h3.849c2.096,0,3.099,0.405,3.571,0.746
				c0.35,0.252,0.814,0.729,0.814,1.961c0,0,0,11.367,0,11.457c-0.113,0-0.149,0-0.258,0.001c-0.002-0.351-0.013-2.542-0.013-2.542
				v-1.084h-8.528C205.49,530.892,204.425,530.653,203.75,530.185z"/>
			<path fill="#FFFFFF" d="M207.458,520.556c-1.219,0-2.17,0.163-2.906,0.498c-1.317,0.599-1.514,1.531-1.514,2.033v4.965
				c0,0.988,0.451,1.768,1.27,2.192c0.619,0.321,1.458,0.478,2.568,0.478h8.565v-7.584c0-0.521-0.188-1.484-1.444-2.082
				c-0.705-0.337-1.618-0.5-2.792-0.5H207.458z M205.45,523.027c0.304-0.138,0.899-0.304,2.008-0.304h3.747
				c1.037,0,1.583,0.157,1.858,0.289l0.219,0.145c0,0-0.006,3.893-0.008,5.396c-1.584,0-6.398,0-6.398,0
				c-0.973,0-1.4-0.146-1.568-0.234c-0.059-0.029-0.101-0.053-0.101-0.268c0,0,0-4.907,0-4.946
				C205.217,523.17,205.45,523.027,205.45,523.027z"/>
			<path enable-background="new    " d="M216.797,534.562c0,0.693-0.297,1.041-0.89,1.041h-0.661c-0.593,0-0.89-0.346-0.89-1.036
				v-2.591h-7.444c-1.658,0-2.918-0.301-3.782-0.9c-0.943-0.66-1.415-1.685-1.415-3.072v-4.953c0-1.226,0.432-2.149,1.297-2.767
				c0.943-0.677,2.433-1.016,4.465-1.016h3.849c1.924,0,3.326,0.317,4.205,0.951c0.843,0.608,1.265,1.557,1.265,2.841V534.562z
				 M214.357,529.638v-6.5c0-0.474-0.275-0.842-0.826-1.104c-0.551-0.264-1.326-0.395-2.326-0.395h-3.747
				c-1.051,0-1.871,0.134-2.457,0.4c-0.587,0.268-0.879,0.615-0.879,1.047v4.965c0,0.583,0.229,0.992,0.685,1.23
				c0.457,0.236,1.147,0.355,2.068,0.355H214.357z"/>
		</g>
		<g>
			<path fill="#FFFFFF" d="M233.411,518.183c-1.199,0-1.974,0.838-1.974,2.135v7.938c-0.696,0.238-1.392,0.332-2.285,0.332h-3.565
				c-1.16,0-1.79-0.158-2.114-0.291l-0.265-0.152l0.027-7.826l-0.479-1.488c-0.249-0.295-0.71-0.646-1.493-0.646h-0.629
				c-0.783,0-1.245,0.352-1.495,0.647l-0.479,1.488v7.914c0,1.457,0.514,2.62,1.527,3.456c1.165,0.969,2.931,1.439,5.396,1.439
				h3.572c2.156,0,3.865-0.454,5.079-1.352c1.185-0.877,1.811-2.102,1.811-3.544v-7.914l-0.486-1.493
				c-0.251-0.293-0.715-0.643-1.499-0.643H233.411z M225.586,530.756h3.565c1.182,0,2.115-0.14,2.853-0.428
				c1.393-0.541,1.601-1.53,1.601-2.073v-7.938c0,0,0.13,0.01,0.256,0.02c0.001,0.347,0.015,7.896,0.015,7.896
				c0,0.759-0.295,1.33-0.931,1.8c-0.833,0.615-2.107,0.927-3.79,0.927h-3.572c-1.884,0-3.272-0.325-4.013-0.94
				c-0.506-0.418-0.741-0.986-0.741-1.786v-7.914c0,0,0.111,0.009,0.222,0.017c0.001,0.354,0.015,7.883,0.015,7.883
				c0,0.537,0.205,1.52,1.582,2.084C223.395,530.607,224.355,530.756,225.586,530.756z"/>
			<path enable-background="new    " d="M234.961,528.232c0,1.106-0.458,1.996-1.37,2.672c-1.029,0.761-2.508,1.14-4.435,1.14
				h-3.572c-2.181,0-3.749-0.396-4.705-1.19c-0.756-0.625-1.133-1.497-1.133-2.621v-7.914c0-0.7,0.296-1.051,0.889-1.051h0.629
				c0.592,0,0.889,0.35,0.889,1.05v7.9c0,0.473,0.303,0.832,0.91,1.081c0.606,0.249,1.448,0.372,2.525,0.372h3.565
				c1.034,0,1.853-0.117,2.459-0.354c0.608-0.236,0.911-0.59,0.911-1.063v-7.938c0-0.7,0.296-1.05,0.89-1.05h0.65
				c0.599,0,0.9,0.351,0.9,1.051V528.232z"/>
		</g>
		<g>
			<path fill="#FFFFFF" d="M243.651,518.183c-1.994,0-3.62,0.434-4.829,1.287c-1.312,0.922-2.006,2.252-2.006,3.846v4.693
				c0,1.398,0.564,2.627,1.677,3.654c0.015,0.014,2.204,1.117,2.204,1.117c0.002,0,3.048,0.348,3.048,0.348h1.534
				c1.196,0,1.971-0.841,1.971-2.143v-0.255l-0.475-1.49c-0.249-0.298-0.711-0.653-1.496-0.653h-1.792
				c-0.891,0-1.376-0.178-1.658-0.44c2.243,0,10.482,0,10.482,0c0.639,0,1.175-0.353,1.473-0.967
				c-0.004,0.007,0.282-1.284,0.282-1.284v-3.079c0-1.505-0.682-2.744-1.974-3.583c-1.068-0.696-2.398-1.051-3.953-1.051H243.651z
				 M243.745,530.959l-2.474-0.271l-1.32-0.631c-0.645-0.596-0.965-1.271-0.965-2.049v-4.693c0-0.895,0.345-1.552,1.084-2.072
				c0.84-0.592,2.044-0.891,3.582-0.891h4.487c1.126,0,2.059,0.234,2.77,0.698c0.683,0.444,0.988,0.989,0.988,1.766v3.079
				c0,0-0.01,0.051-0.015,0.082c-0.799,0-12.592,0-12.592,0v1.084c0,1.111,0.409,3.694,4.196,3.694c0,0,1.261,0,1.585,0
				c0.004,0.114,0.008,0.229,0.008,0.229L243.745,530.959z"/>
			<path fill="#FFFFFF" d="M243.925,520.589l-2.882,0.404c-1.583,0.561-1.82,1.599-1.82,2.168v2.545h12.505v-2.646
				c0-0.57-0.28-1.372-1.61-1.957c-0.777-0.341-1.691-0.514-2.715-0.514H243.925z M241.771,523.036
				c0.003-0.002,2.154-0.277,2.154-0.277h3.478c0.724,0,1.344,0.11,1.844,0.33c0,0,0.212,0.123,0.313,0.182c0,0.063,0,0.154,0,0.268
				c-1.533,0-6.634,0-8.167,0c0-0.141,0-0.363,0-0.368C241.4,523.23,241.771,523.036,241.771,523.036z"/>
			<path enable-background="new    " d="M252.981,525.896c0,0.305-0.057,0.576-0.174,0.812c-0.114,0.236-0.281,0.354-0.497,0.354
				h-11.936c0,1.74,1.037,2.609,3.111,2.609h1.792c0.591,0,0.886,0.354,0.886,1.06v0.255c0,0.705-0.295,1.059-0.886,1.059h-1.534
				c-1.087,0-2.008-0.104-2.76-0.31c-0.753-0.208-1.339-0.495-1.756-0.867c-0.885-0.817-1.328-1.771-1.328-2.858v-4.693
				c0-1.248,0.515-2.234,1.546-2.959c1.029-0.727,2.431-1.089,4.204-1.089h4.487c1.347,0,2.468,0.292,3.362,0.875
				c0.987,0.642,1.48,1.533,1.48,2.674V525.896z M250.643,524.622v-1.563c0-0.361-0.321-0.683-0.961-0.965
				c-0.641-0.28-1.4-0.421-2.279-0.421h-3.478c-1.044,0-1.883,0.113-2.517,0.34c-0.735,0.261-1.101,0.643-1.101,1.147v1.461H250.643
				z"/>
		</g>
		<g>
			<path fill="#FFFFFF" d="M273.724,514.692c-1.51,0-2.804,0.328-3.846,0.976c-1.058,0.659-1.734,1.555-2.013,2.661l-0.146,1.971
				l0.011,0.232l0.082,0.559c0.121,0.506,0.508,1.115,1.173,1.902c-0.059,0.025-0.187,0.08-0.187,0.08
				c-0.926,0.486-1.593,1.072-1.991,1.744c-0.001,0.002-0.541,2.215-0.541,2.215v1.104c0,0.994,0.366,2.432,2.104,3.648
				c1.273,0.892,2.905,1.344,4.85,1.344h4.822l2.719-0.217c0.001-0.001,0.806-0.32,1.433-0.57c0.312,0.217,0.834,0.58,0.834,0.58
				l0.327,0.111l0.552,0.096h0.867l1.52-0.591c0-0.003,0.604-1.438,0.604-1.438l-0.277-1.061c-0.003-0.006-0.774-0.835-0.774-0.835
				c-0.008-0.006-0.238-0.165-0.466-0.321c0.012-0.035,0.047-0.146,0.047-0.146l0.09-1.054v-3.23c0-1.291-0.777-2.126-1.979-2.126
				h-0.741c-1.208,0-1.99,0.835-1.99,2.126c0,0,0.003,0.697,0.006,1.335c-0.918-0.62-1.25-0.845-2.129-1.438
				c0.68-0.39,1.662-0.951,1.662-0.951c1.02-0.741,1.62-1.499,1.83-2.318c0.022-0.113,0.066-0.781,0.066-0.781
				c-0.001,0.009,0.017-0.598,0.017-0.598c0.005-1.631-0.591-2.841-1.718-3.733c-1.069-0.845-2.461-1.274-4.136-1.274H273.724z
				 M269.916,520.572l-0.025-0.245l0.108-1.663c0.108-0.356,0.453-0.798,1.025-1.154c0.693-0.431,1.6-0.648,2.7-0.648h2.679
				c1.175,0,2.114,0.271,2.791,0.806c0.614,0.486,0.9,1.059,0.9,1.8c-0.005,0.178-0.021,0.769-0.021,0.769
				c-0.001,0.01-0.021,0.418-0.021,0.418c-0.013,0.023-0.182,0.409-0.982,0.99c-0.003,0.002-1.931,1.099-1.931,1.099l-2.703,1.176
				l1.456,1.163l7.11,4.803c0,0-0.001-0.093-0.001-0.102c0.169,0.148,0.491,0.433,0.491,0.433l1.144,0.789l0.083,0.078l-0.812-0.123
				l-0.94-0.721l-0.479-0.333l-0.697,0.293l-1.472,0.59c-0.003,0-2.276,0.171-2.276,0.171h-4.822c-1.492,0-2.705-0.319-3.606-0.952
				c-1.057-0.738-1.179-1.422-1.179-1.871v-1.104l0.238-1.111c0.187-0.314,0.576-0.635,1.126-0.923
				c-0.005,0.002,0.714-0.308,0.714-0.308c0.001,0,2.244-0.814,2.244-0.814l-1.139-1.227l-0.875-0.916
				C270.749,521.737,269.916,520.572,269.916,520.572z M282.991,527.83l-0.017-3.383c0,0,0.194,0.017,0.359,0.03
				c0.001,0.328,0.014,3.205,0.014,3.205l-0.052,0.649c0,0-0.239,0.733-0.297,0.908C282.995,528.634,282.991,527.83,282.991,527.83z
				 M285.845,529.203l0.011,0.008l-0.091-0.095C285.765,529.116,285.845,529.202,285.845,529.203z"/>
			<path fill="#FFFFFF" d="M273.442,524.013l-1.309,0.402l-1.834,0.82c-0.735,0.389-1.49,0.9-1.49,1.746v1.082
				c0,0.756,0.456,1.398,1.357,1.91c0.839,0.475,1.922,0.715,3.222,0.715h4.692l5.317-0.289l-2.822-1.787l-6.957-4.705
				L273.442,524.013z M271.317,527.149c0.004-0.002,1.599-0.711,1.599-0.711s0.185-0.068,0.37-0.138
				c0.423,0.286,1.674,1.132,3.28,2.218c-1.389,0-3.178,0-3.178,0c-0.92,0-1.645-0.145-2.152-0.432l-0.312-0.227
				c0,0,0.015-0.242,0.029-0.481C271.098,527.288,271.317,527.149,271.317,527.149z"/>
			<path fill="#FFFFFF" d="M271.555,517.554c-1.122,0.529-1.289,1.397-1.289,1.866v0.862l0.755,1.551l2.165,1.541l0.446,0.314
				l3.621-1.198c0.024-0.009,1.788-0.833,1.788-0.833c0.439-0.357,0.681-0.855,0.681-1.4v-0.785c0-0.768-0.336-1.396-0.947-1.772
				c-0.001-0.001-1.749-0.521-1.749-0.521l-0.598-0.044l-2.76-0.002L271.555,517.554z M273.667,519.302h2.685l0.473,0.035
				c-0.001,0-0.002,0-0.002,0c0,0.007,0.814,0.211,0.814,0.211s-0.031,0.252-0.056,0.462c-0.16,0.063-1.036,0.431-1.036,0.431
				s-1.845,0.609-2.561,0.846c-0.539-0.378-1.56-1.093-1.56-1.093l0.01-0.773C272.482,519.513,273.667,519.302,273.667,519.302z"/>
			<path enable-background="new    " d="M285.24,530.104c0.188,0.126,0.33,0.277,0.427,0.453c0.096,0.177,0.145,0.358,0.145,0.542
				c0,0.261-0.094,0.483-0.282,0.668c-0.188,0.186-0.439,0.277-0.757,0.277h-0.867c-0.051,0-0.13-0.018-0.239-0.05
				c-0.109-0.033-0.182-0.067-0.218-0.101l-1.101-0.765c-0.583,0.349-1.186,0.59-1.808,0.72c-0.622,0.129-1.454,0.195-2.499,0.195
				h-4.822c-1.726,0-3.136-0.383-4.229-1.148c-1.094-0.766-1.641-1.686-1.641-2.76v-1.104c0-0.669,0.129-1.223,0.389-1.662
				c0.295-0.499,0.813-0.943,1.556-1.332c0.23-0.119,0.51-0.24,0.838-0.363c0.327-0.123,0.566-0.209,0.718-0.26
				c-0.404-0.404-0.71-0.727-0.919-0.964c-0.627-0.72-0.983-1.261-1.07-1.624c-0.029-0.118-0.045-0.227-0.048-0.329
				c-0.004-0.102-0.005-0.183-0.005-0.241l0.108-1.662c0.208-0.83,0.72-1.498,1.535-2.006c0.87-0.541,1.961-0.812,3.272-0.812h2.679
				c1.433,0,2.587,0.347,3.463,1.04c0.875,0.692,1.312,1.576,1.312,2.649c-0.007,0.278-0.014,0.546-0.022,0.805
				c-0.006,0.257-0.017,0.437-0.032,0.538c-0.144,0.559-0.617,1.129-1.419,1.711c-0.567,0.416-1.271,0.816-2.109,1.205
				c-0.659,0.305-1.025,0.456-1.097,0.456l5.408,3.653l-0.017-3.383c0-0.694,0.302-1.041,0.905-1.041h0.741
				c0.598,0,0.895,0.347,0.895,1.041v3.23c0,0.322-0.024,0.605-0.071,0.852c-0.047,0.246-0.131,0.508-0.253,0.787L285.24,530.104z
				 M279.967,529.511l-6.525-4.414c-0.043,0-0.35,0.109-0.917,0.33c-0.683,0.265-1.255,0.52-1.714,0.765
				c-0.611,0.323-0.917,0.587-0.917,0.79v1.082c0,0.34,0.27,0.661,0.809,0.967c0.675,0.383,1.57,0.573,2.686,0.573h4.692
				C279.023,529.604,279.652,529.573,279.967,529.511z M278.636,520.257v-0.785c0-0.389-0.144-0.672-0.431-0.85
				c-0.288-0.176-0.722-0.299-1.305-0.367l-0.548-0.037h-2.685c-0.654,0-1.204,0.105-1.649,0.316
				c-0.446,0.211-0.668,0.507-0.668,0.886v0.862c0,0.221,0.151,0.486,0.452,0.799l2.006,1.406l3.103-1.026
				c0.777-0.278,1.258-0.495,1.444-0.646C278.542,520.663,278.636,520.478,278.636,520.257z"/>
		</g>
		<g>
			<path fill="#FFFFFF" d="M314.002,514.692c-0.788,0-1.249,0.357-1.499,0.656l-0.475,1.494c0,0,0,0.736,0,1.441
				c-1.562,0-6.064,0-6.064,0c-2.21,0-3.853,0.444-5.022,1.357c-1.126,0.875-1.723,2.156-1.723,3.703l-0.033,5.082
				c0,1.381,0.547,2.535,1.582,3.345c1.172,0.913,2.882,1.356,5.232,1.356h3.659c2.11,0,3.828-0.51,5.107-1.514
				c1.201-0.943,1.837-2.156,1.837-3.507v-11.276c0-1.299-0.777-2.139-1.982-2.139H314.002z M302.104,530.062
				c-0.511-0.398-0.749-0.916-0.749-1.627l0.034-5.082c0-0.897,0.281-1.531,0.885-2c0.766-0.598,2.007-0.898,3.69-0.898h8.233
				v-3.611c0,0,0.112,0.005,0.223,0.01c0,0.363,0.015,11.255,0.015,11.255c0,0.433-0.104,1.092-1.009,1.8
				c-0.887,0.698-2.153,1.052-3.767,1.052H306C304.178,530.959,302.867,530.657,302.104,530.062z"/>
			<path fill="#FFFFFF" d="M313.112,520.657h-7.192c-1.324,0-2.293,0.172-2.961,0.523c-0.86,0.451-1.334,1.238-1.334,2.215v4.52
				c0,1.502,0.833,2.135,1.33,2.377c0.644,0.316,1.603,0.464,3.018,0.464h3.447c1.384,0,2.435-0.173,3.21-0.528
				c1.364-0.625,1.567-1.629,1.567-2.172v-7.398H313.112z M303.908,528.345c-0.1-0.049-0.113-0.291-0.113-0.43v-4.52
				c0-0.179,0.037-0.225,0.174-0.297c0.156-0.081,0.659-0.272,1.951-0.272c0,0,4.545,0,6.108,0c0,1.487,0,5.228,0,5.229
				c-0.009,0.005-0.303,0.199-0.303,0.199c-0.331,0.152-0.998,0.332-2.306,0.332h-3.447
				C304.556,528.587,304.058,528.417,303.908,528.345z"/>
			<path enable-background="new    " d="M315.519,528.107c0,1.024-0.475,1.909-1.423,2.653c-1.087,0.855-2.565,1.283-4.437,1.283
				H306c-2.08,0-3.601-0.375-4.564-1.127c-0.777-0.607-1.166-1.436-1.166-2.482l0.034-5.09c0-1.225,0.436-2.173,1.305-2.849
				c0.963-0.751,2.416-1.127,4.355-1.127h7.148v-2.526c0-0.71,0.297-1.065,0.89-1.065h0.619c0.599,0,0.897,0.352,0.897,1.054
				V528.107z M313.112,528.056v-6.314h-7.192c-1.136,0-1.953,0.134-2.456,0.398s-0.754,0.684-0.754,1.256v4.52
				c0,0.699,0.24,1.168,0.722,1.402c0.48,0.236,1.327,0.354,2.541,0.354h3.447c1.213,0,2.132-0.143,2.757-0.43
				C312.801,528.956,313.112,528.561,313.112,528.056z"/>
		</g>
		<g>
			<path fill="#FFFFFF" d="M324.008,518.183c-1.995,0-3.62,0.434-4.829,1.287c-1.312,0.922-2.006,2.252-2.006,3.846v4.693
				c0,1.398,0.563,2.627,1.678,3.654c0.013,0.014,2.202,1.117,2.202,1.117c0.003,0,3.048,0.348,3.048,0.348h1.534
				c0.908,0,1.97-0.561,1.97-2.143v-0.255l-0.473-1.489c-0.25-0.299-0.712-0.654-1.497-0.654h-1.792
				c-0.892,0-1.375-0.178-1.656-0.44c2.243,0,10.479,0,10.479,0c0.64,0,1.176-0.353,1.475-0.967
				c-0.004,0.007,0.281-1.284,0.281-1.284v-3.079c0-1.505-0.682-2.744-1.974-3.583c-1.069-0.696-2.399-1.051-3.954-1.051H324.008z
				 M324.101,530.959l-2.474-0.271l-1.319-0.631c-0.646-0.596-0.966-1.271-0.966-2.049v-4.693c0-0.895,0.346-1.552,1.084-2.072
				c0.839-0.592,2.044-0.891,3.582-0.891h4.486c1.127,0,2.059,0.234,2.771,0.698c0.684,0.444,0.988,0.989,0.988,1.766v3.079
				c0,0-0.01,0.051-0.015,0.082c-0.796,0-12.592,0-12.592,0v1.084c0,1.111,0.409,3.694,4.196,3.694c0,0,1.26,0,1.584,0
				c0.005,0.114,0.009,0.229,0.009,0.229L324.101,530.959z"/>
			<path fill="#FFFFFF" d="M324.281,520.589l-2.883,0.404c-1.582,0.561-1.819,1.599-1.819,2.168v2.545h12.505v-2.646
				c0-0.57-0.279-1.373-1.609-1.957c-0.78-0.341-1.692-0.514-2.716-0.514H324.281z M322.127,523.036
				c0.004-0.002,2.154-0.277,2.154-0.277h3.478c0.723,0,1.343,0.11,1.845,0.33c0,0,0.212,0.123,0.312,0.181c0,0.063,0,0.155,0,0.269
				c-1.533,0-6.634,0-8.167,0c0-0.141,0-0.363,0-0.368C321.756,523.23,322.127,523.036,322.127,523.036z"/>
			<path enable-background="new    " d="M333.338,525.896c0,0.305-0.058,0.576-0.174,0.812c-0.114,0.236-0.281,0.354-0.498,0.354
				h-11.935c0,1.74,1.035,2.609,3.111,2.609h1.792c0.591,0,0.885,0.354,0.885,1.06v0.255c0,0.705-0.294,1.059-0.885,1.059h-1.534
				c-1.088,0-2.008-0.104-2.76-0.31c-0.752-0.208-1.338-0.495-1.756-0.867c-0.885-0.817-1.327-1.771-1.327-2.858v-4.693
				c0-1.248,0.515-2.234,1.546-2.959c1.029-0.727,2.432-1.089,4.204-1.089h4.486c1.347,0,2.47,0.292,3.363,0.875
				c0.987,0.642,1.48,1.533,1.48,2.674V525.896z M330.999,524.622v-1.563c0-0.361-0.319-0.683-0.961-0.965
				c-0.642-0.28-1.4-0.421-2.279-0.421h-3.478c-1.044,0-1.883,0.113-2.517,0.34c-0.734,0.261-1.102,0.643-1.102,1.147v1.461H330.999
				z"/>
		</g>
		<g>
			<path fill="#FFFFFF" d="M350.286,518.183l-0.896,0.246c-0.007,0.004-0.672,0.58-0.672,0.58s-4.295,6.184-5.621,8.09
				c-1.328-1.904-5.63-8.074-5.63-8.074c-0.036-0.048-0.669-0.58-0.669-0.58l-0.909-0.262h-0.675l-1.453,0.504
				c-0.007,0.005-0.632,1.426-0.632,1.426l0.515,1.487l7.679,10.875c0.419,0.632,1.055,0.992,1.771,0.992
				c0.5,0,1.218-0.177,1.809-1.022l7.721-10.975l-0.092,0.13l0.515-1.487l-0.642-1.43l-1.442-0.5H350.286z M343.989,529.616
				l6.498-9.354c0,0,0.152,0.029,0.29,0.055c-0.004,0.005-0.017,0.029-0.017,0.029l-7.636,10.854c0,0-7.687-10.819-7.703-10.843
				c0.223-0.003,0.468-0.005,0.468-0.005l6.32,9.266l0.892,1.279L343.989,529.616z"/>
			<path enable-background="new    " d="M351.648,520.971l-7.636,10.853c-0.261,0.373-0.565,0.56-0.919,0.56
				s-0.648-0.179-0.886-0.534l-7.68-10.878c-0.21-0.294-0.313-0.581-0.313-0.858c0-0.252,0.087-0.455,0.263-0.611
				c0.176-0.154,0.421-0.233,0.737-0.233h0.675c0.108,0,0.233,0.04,0.373,0.12c0.14,0.079,0.244,0.165,0.315,0.257l6.521,9.354
				l6.498-9.354c0.072-0.1,0.176-0.188,0.312-0.264c0.138-0.075,0.263-0.113,0.377-0.113h0.676c0.31,0,0.553,0.079,0.73,0.233
				c0.181,0.156,0.27,0.359,0.27,0.611C351.962,520.39,351.858,520.677,351.648,520.971z"/>
		</g>
		<g>
			<path fill="#FFFFFF" d="M358.456,518.183c-1.995,0-3.62,0.434-4.829,1.287c-1.312,0.922-2.006,2.252-2.006,3.846v4.693
				c0,1.398,0.563,2.627,1.677,3.654c0.013,0.014,2.203,1.117,2.203,1.117c0.002,0,3.048,0.348,3.048,0.348h1.533
				c0.909,0,1.97-0.561,1.97-2.143v-0.255l-0.472-1.489c-0.25-0.299-0.712-0.654-1.498-0.654h-1.792
				c-0.892,0-1.374-0.178-1.656-0.44c2.243,0,10.48,0,10.48,0c0.64,0,1.176-0.353,1.475-0.967c-0.005,0.007,0.281-1.284,0.281-1.284
				v-3.079c0-1.505-0.682-2.744-1.974-3.583c-1.07-0.696-2.4-1.051-3.955-1.051H358.456z M358.549,530.959l-2.474-0.271
				l-1.319-0.631c-0.646-0.596-0.966-1.271-0.966-2.049v-4.693c0-0.895,0.345-1.552,1.084-2.072
				c0.839-0.592,2.044-0.891,3.582-0.891h4.485c1.127,0,2.059,0.234,2.771,0.698c0.685,0.444,0.989,0.989,0.989,1.766v3.079
				c0,0-0.011,0.051-0.015,0.082c-0.797,0-12.592,0-12.592,0v1.084c0,1.111,0.409,3.694,4.195,3.694c0,0,1.261,0,1.585,0
				c0.004,0.114,0.008,0.229,0.008,0.229L358.549,530.959z"/>
			<path fill="#FFFFFF" d="M358.729,520.589l-2.882,0.404c-1.583,0.561-1.819,1.599-1.819,2.168v2.545h12.505v-2.646
				c0-0.57-0.28-1.373-1.61-1.957c-0.779-0.341-1.692-0.514-2.715-0.514H358.729z M356.575,523.036
				c0.004-0.002,2.153-0.277,2.153-0.277h3.479c0.722,0,1.343,0.11,1.845,0.33c0,0,0.212,0.123,0.312,0.181c0,0.063,0,0.155,0,0.269
				c-1.534,0-6.634,0-8.168,0c0-0.141,0-0.363,0-0.368C356.204,523.23,356.575,523.036,356.575,523.036z"/>
			<path enable-background="new    " d="M367.786,525.896c0,0.305-0.058,0.576-0.174,0.812c-0.114,0.236-0.282,0.354-0.498,0.354
				h-11.936c0,1.74,1.036,2.609,3.111,2.609h1.792c0.591,0,0.886,0.354,0.886,1.06v0.255c0,0.705-0.295,1.059-0.886,1.059h-1.533
				c-1.089,0-2.008-0.104-2.76-0.31c-0.752-0.208-1.339-0.495-1.756-0.867c-0.886-0.817-1.328-1.771-1.328-2.858v-4.693
				c0-1.248,0.515-2.234,1.546-2.959c1.029-0.727,2.432-1.089,4.205-1.089h4.485c1.348,0,2.47,0.292,3.363,0.875
				c0.987,0.642,1.481,1.533,1.481,2.674V525.896z M365.447,524.622v-1.563c0-0.361-0.319-0.683-0.962-0.965
				c-0.642-0.28-1.399-0.421-2.278-0.421h-3.479c-1.044,0-1.883,0.113-2.516,0.34c-0.735,0.261-1.102,0.643-1.102,1.147v1.461
				H365.447z"/>
		</g>
		<g>
			<path fill="#FFFFFF" d="M371.461,514.692c-0.78,0-1.241,0.349-1.491,0.641l-0.481,1.484v14.174c0,1.299,0.773,2.137,1.973,2.137
				h0.631c1.198,0,1.972-0.838,1.972-2.137v-14.174l-0.48-1.484c-0.25-0.292-0.712-0.641-1.491-0.641H371.461z M371.657,516.817
				c0,0,0.112,0.012,0.223,0.023c0,0.352,0.015,14.054,0.015,14.117c-0.1,0-0.125,0-0.223,0.001
				C371.672,530.568,371.657,516.817,371.657,516.817z"/>
			<path enable-background="new    " d="M372.979,530.991c0,0.701-0.297,1.053-0.888,1.053h-0.631c-0.592,0-0.888-0.352-0.888-1.053
				v-14.174c0-0.693,0.296-1.04,0.888-1.04h0.631c0.591,0,0.888,0.347,0.888,1.04V530.991z"/>
		</g>
		<g>
			<path fill="#FFFFFF" d="M381.483,518.183c-2.133,0-3.83,0.57-5.046,1.693c-1.057,0.967-1.593,2.145-1.593,3.494v4.711
				l0.594,2.252c0.482,0.859,1.209,1.535,2.158,2.01c1.038,0.521,2.351,0.785,3.899,0.785h3.985c1.574,0,2.894-0.283,3.921-0.841
				c0.898-0.481,1.578-1.175,2.01-2.057c0.002-0.002,0.479-2.149,0.479-2.149v-4.736c0-1.72-0.571-3.041-1.698-3.925
				c-1.065-0.832-2.605-1.237-4.711-1.237H381.483z M378.568,530.403c-0.563-0.281-0.968-0.652-1.239-1.133l-0.315-1.189v-4.711
				c0-0.736,0.284-1.34,0.892-1.897c0.806-0.745,2.009-1.12,3.578-1.12h3.998c1.558,0,2.725,0.268,3.374,0.775
				c0.583,0.458,0.867,1.184,0.867,2.217v4.736l-0.257,1.194c-0.23,0.472-0.591,0.833-1.095,1.103
				c-0.71,0.387-1.682,0.581-2.89,0.581h-3.985C380.288,530.959,379.304,530.772,378.568,530.403z"/>
			<path fill="#FFFFFF" d="M381.521,520.556c-1.333,0-2.352,0.257-3.111,0.787c-0.958,0.662-1.159,1.469-1.159,2.027v4.698
				c0,0.763,0.388,1.445,1.093,1.922c0.759,0.515,1.803,0.766,3.19,0.766h3.896c1.178,0,2.14-0.245,2.859-0.727
				c0.96-0.641,1.161-1.42,1.161-1.961v-4.913c0-0.934-0.506-1.686-1.426-2.118c-0.69-0.323-1.542-0.481-2.604-0.481H381.521z
				 M379.562,528.194l-0.142-4.824c0-0.086,0.188-0.221,0.227-0.246c0.263-0.183,0.799-0.4,1.875-0.4h3.899
				c0.904,0,1.414,0.15,1.682,0.277c0,0,0.178,5.014,0.18,5.049c-0.013,0.01-0.197,0.178-0.197,0.178
				c-0.354,0.235-0.923,0.359-1.654,0.359h-3.896C380.382,528.587,379.824,528.373,379.562,528.194z"/>
			<path enable-background="new    " d="M390.807,528.081c0,0.616-0.123,1.174-0.366,1.671c-0.333,0.676-0.85,1.203-1.557,1.582
				c-0.871,0.474-2.006,0.71-3.402,0.71h-3.985c-1.386,0-2.522-0.224-3.415-0.672c-0.758-0.379-1.321-0.902-1.696-1.569
				c-0.303-0.54-0.455-1.114-0.455-1.722v-4.711c0-1.037,0.415-1.938,1.243-2.697c1.015-0.938,2.453-1.405,4.311-1.405h3.998
				c1.837,0,3.184,0.336,4.042,1.007c0.855,0.671,1.283,1.695,1.283,3.07V528.081z M388.366,528.068v-4.913
				c0-0.505-0.267-0.885-0.803-1.137c-0.535-0.252-1.251-0.379-2.143-0.379h-3.899c-1.093,0-1.926,0.198-2.493,0.594
				c-0.462,0.319-0.692,0.698-0.692,1.137v4.698c0,0.404,0.205,0.745,0.616,1.022c0.569,0.388,1.43,0.58,2.582,0.58h3.896
				c0.964,0,1.716-0.181,2.256-0.543C388.14,528.825,388.366,528.473,388.366,528.068z"/>
		</g>
		<g>
			<path fill="#FFFFFF" d="M399.234,518.183c-2.315,0-3.965,0.424-5.047,1.293c-1.009,0.816-1.517,2.024-1.517,3.596v11.49
				c0,1.291,0.772,2.125,1.972,2.125h0.629c1.199,0,1.974-0.832,1.974-2.12c0,0,0-0.773,0-1.506c1.587,0,6.403,0,6.403,0
				c1.879,0,3.372-0.389,4.438-1.157c0.836-0.606,1.832-1.774,1.832-3.9v-4.965c0-1.579-0.61-2.846-1.765-3.664
				c-1.14-0.803-2.804-1.191-5.092-1.191H399.234z M394.84,523.071c0-0.896,0.232-1.521,0.709-1.908
				c0.46-0.368,1.475-0.811,3.686-0.811h3.827c2.243,0,3.327,0.431,3.84,0.793c0.362,0.256,0.848,0.734,0.848,1.893v4.965
				c0,1.314-0.532,1.854-0.935,2.143c-0.686,0.494-1.751,0.746-3.166,0.746h-8.572v3.675c0,0-0.111-0.013-0.222-0.025
				C394.853,534.191,394.84,523.071,394.84,523.071z"/>
			<path fill="#FFFFFF" d="M399.345,520.556l-2.732,0.373c-0.977,0.402-1.536,1.211-1.536,2.221v7.572h8.565
				c1.11,0,1.935-0.148,2.519-0.451c0.85-0.442,1.317-1.23,1.317-2.219v-4.965c0-0.941-0.491-1.707-1.347-2.102
				c-0.638-0.293-1.605-0.43-3.05-0.43H399.345z M397.245,523.149c0,0,0-0.002,0-0.004c0-0.104,0.003-0.133,0.191-0.211
				c0.006,0,1.908-0.211,1.908-0.211h3.736c1.48,0,1.993,0.162,2.144,0.231l0.084,5.097c0,0.217-0.053,0.243-0.148,0.293
				c-0.12,0.063-0.51,0.209-1.519,0.209c0,0-4.81,0-6.396,0C397.245,527.048,397.245,523.149,397.245,523.149z"/>
			<path enable-background="new    " d="M408.833,528.003c0,1.346-0.459,2.353-1.381,3.021c-0.881,0.634-2.147,0.951-3.804,0.951
				h-7.487v2.591c0,0.69-0.297,1.036-0.89,1.036h-0.629c-0.593,0-0.888-0.348-0.888-1.041v-11.49c0-1.233,0.371-2.15,1.112-2.751
				c0.872-0.701,2.327-1.053,4.367-1.053h3.827c2.04,0,3.526,0.331,4.465,0.99c0.871,0.617,1.307,1.545,1.307,2.78V528.003z
				 M406.394,528.052v-4.965c0-0.523-0.237-0.896-0.716-1.117c-0.479-0.22-1.346-0.33-2.597-0.33h-3.736
				c-1.072,0-1.845,0.098-2.321,0.293c-0.576,0.236-0.862,0.644-0.862,1.217v6.488h7.48c0.922,0,1.596-0.11,2.019-0.33
				C406.149,529.053,406.394,528.635,406.394,528.052z"/>
		</g>
		<g>
			<path fill="#FFFFFF" d="M417.263,518.183c-2.316,0-3.967,0.424-5.047,1.293c-1.008,0.814-1.519,2.023-1.519,3.596v11.49
				c0,1.291,0.775,2.125,1.974,2.125h0.627c1.199,0,1.975-0.832,1.975-2.12c0,0,0-0.773,0-1.506c1.586,0,6.402,0,6.402,0
				c1.908,0,3.359-0.378,4.439-1.157c0.837-0.607,1.832-1.775,1.832-3.9v-4.965c0-1.58-0.612-2.848-1.767-3.666
				c-1.137-0.801-2.802-1.189-5.092-1.189H417.263z M412.866,523.071c0-0.896,0.232-1.521,0.712-1.906
				c0.459-0.371,1.472-0.813,3.685-0.813h3.825c2.245,0,3.328,0.431,3.841,0.791c0.364,0.258,0.849,0.736,0.849,1.895v4.965
				c0,1.313-0.533,1.852-0.936,2.143c-0.685,0.495-1.75,0.746-3.167,0.746h-8.571v3.675c0,0-0.112-0.013-0.223-0.025
				C412.879,534.193,412.866,523.071,412.866,523.071z"/>
			<path fill="#FFFFFF" d="M417.373,520.556l-2.734,0.373c-0.977,0.402-1.535,1.212-1.535,2.221v7.572h8.565
				c1.107,0,1.932-0.148,2.519-0.451c0.851-0.444,1.319-1.232,1.319-2.219v-4.965c0-0.941-0.491-1.707-1.35-2.102
				c-0.638-0.293-1.605-0.43-3.05-0.43H417.373z M415.272,523.149c0,0,0-0.002,0-0.004c0-0.101,0.002-0.133,0.192-0.211
				c0.002,0,1.908-0.211,1.908-0.211h3.734c1.48,0,1.993,0.162,2.144,0.231l0.087,5.097c0,0.215-0.053,0.243-0.15,0.294
				c-0.119,0.062-0.511,0.208-1.519,0.208c0,0-4.811,0-6.396,0C415.272,527.048,415.272,523.149,415.272,523.149z"/>
			<path enable-background="new    " d="M426.862,528.003c0,1.346-0.462,2.353-1.383,3.021c-0.88,0.634-2.146,0.951-3.805,0.951
				h-7.487v2.591c0,0.69-0.296,1.036-0.89,1.036h-0.627c-0.593,0-0.89-0.348-0.89-1.041v-11.49c0-1.233,0.371-2.15,1.114-2.751
				c0.871-0.701,2.328-1.053,4.367-1.053h3.825c2.042,0,3.529,0.331,4.465,0.99c0.873,0.617,1.31,1.545,1.31,2.78V528.003z
				 M424.422,528.052v-4.965c0-0.523-0.239-0.896-0.718-1.117c-0.479-0.22-1.345-0.33-2.597-0.33h-3.734
				c-1.073,0-1.847,0.098-2.321,0.293c-0.576,0.236-0.864,0.644-0.864,1.217v6.488h7.481c0.921,0,1.595-0.11,2.021-0.33
				C424.177,529.053,424.422,528.635,424.422,528.052z"/>
		</g>
		<g>
			<path fill="#FFFFFF" d="M435.527,518.183c-1.995,0-3.62,0.434-4.829,1.287c-1.312,0.922-2.006,2.252-2.006,3.846v4.693
				c0,1.398,0.563,2.627,1.677,3.654c0.013,0.014,2.203,1.117,2.203,1.117c0.002,0,3.048,0.348,3.048,0.348h1.533
				c1.199,0,1.973-0.841,1.973-2.143v-0.255l-0.475-1.49c-0.25-0.298-0.714-0.653-1.498-0.653h-1.792
				c-0.892,0-1.374-0.178-1.656-0.44c2.243,0,10.482,0,10.482,0c0.638,0,1.174-0.353,1.473-0.967
				c-0.005,0.007,0.281-1.284,0.281-1.284v-3.079c0-1.505-0.682-2.744-1.974-3.583c-1.07-0.696-2.4-1.051-3.952-1.051H435.527z
				 M435.62,530.959l-2.474-0.271l-1.319-0.631c-0.646-0.596-0.966-1.271-0.966-2.049v-4.693c0-0.895,0.345-1.552,1.084-2.072
				c0.839-0.592,2.044-0.891,3.582-0.891h4.488c1.126,0,2.057,0.234,2.768,0.698c0.685,0.444,0.989,0.989,0.989,1.766v3.079
				c0,0-0.011,0.051-0.015,0.082c-0.801,0-12.592,0-12.592,0v1.084c0,1.111,0.409,3.694,4.195,3.694c0,0,1.265,0,1.587,0
				c0.004,0.113,0.009,0.229,0.009,0.229L435.62,530.959z"/>
			<path fill="#FFFFFF" d="M435.8,520.589l-2.882,0.404c-1.583,0.561-1.819,1.599-1.819,2.168v2.545h12.505v-2.646
				c0-0.569-0.28-1.371-1.61-1.957c-0.777-0.341-1.69-0.514-2.715-0.514H435.8z M433.646,523.036
				c0.004-0.002,2.153-0.277,2.153-0.277h3.479c0.724,0,1.345,0.11,1.843,0.33c0,0,0.214,0.123,0.313,0.182c0,0.063,0,0.154,0,0.268
				c-1.534,0-6.634,0-8.168,0c0-0.141,0-0.363,0-0.368C433.275,523.23,433.646,523.036,433.646,523.036z"/>
			<path enable-background="new    " d="M444.857,525.896c0,0.305-0.058,0.576-0.174,0.812c-0.114,0.236-0.28,0.354-0.496,0.354
				H432.25c0,1.74,1.038,2.609,3.111,2.609h1.792c0.591,0,0.888,0.354,0.888,1.06v0.255c0,0.705-0.297,1.059-0.888,1.059h-1.533
				c-1.087,0-2.008-0.104-2.76-0.31c-0.754-0.208-1.339-0.495-1.756-0.867c-0.886-0.817-1.328-1.771-1.328-2.858v-4.693
				c0-1.248,0.515-2.234,1.546-2.959c1.03-0.727,2.432-1.089,4.205-1.089h4.488c1.347,0,2.467,0.292,3.361,0.875
				c0.986,0.642,1.48,1.533,1.48,2.674V525.896z M442.519,524.622v-1.563c0-0.361-0.322-0.683-0.962-0.965
				c-0.64-0.28-1.399-0.421-2.278-0.421H435.8c-1.044,0-1.883,0.113-2.516,0.34c-0.735,0.261-1.102,0.643-1.102,1.147v1.461H442.519
				z"/>
		</g>
		<g>
			<path fill="#FFFFFF" d="M461.558,518.183l-2.414,0.402c0,0.002-0.612,0.313-1.114,0.569c-0.567-0.294-1.292-0.666-1.292-0.666
				l-2.229-0.306h-1.642c-2.014,0-3.579,0.456-4.655,1.354c-1.097,0.914-1.652,2.226-1.652,3.897v7.56
				c0,1.297,0.775,2.135,1.975,2.135h0.627c1.198,0,1.974-0.838,1.974-2.135v-7.848c0-0.104,0-0.143,0.203-0.229l1.593-0.193h1.585
				c0.843,0,1.065,0.162,1.073,0.17c0,0,0,0,0,0.002c0,0.041,0.087,0.555,0.087,0.555v7.543c0,1.297,0.775,2.135,1.977,2.135h0.622
				c1.201,0,1.977-0.838,1.977-2.135v-7.506c0-0.313,0.058-0.509,0.172-0.582c0.051-0.033,0.319-0.182,1.142-0.182h1.588
				l1.485,0.248l0.12,8.021c0,1.297,0.777,2.135,1.98,2.135h0.625c1.196,0,1.97-0.838,1.97-2.135v-7.56
				c0-1.655-0.54-2.963-1.605-3.884c-1.057-0.908-2.573-1.367-4.507-1.367H461.558z M458.656,521.243l1.192-0.607
				c0.002,0,1.709-0.283,1.709-0.283h1.663c1.402,0,2.441,0.282,3.092,0.84c0.572,0.495,0.852,1.229,0.852,2.241
				c0,0,0,7.456,0,7.524c-0.102,0-0.127,0-0.223,0.001c0-0.379-0.015-7.839-0.015-7.839c0-0.921-0.47-1.664-1.323-2.09
				c-0.005-0.002-2.451-0.475-2.451-0.475h-1.588c-1.015,0-1.775,0.174-2.321,0.53c-0.527,0.339-1.161,1.034-1.161,2.401v7.506
				c0,0-0.112-0.008-0.223-0.018c0-0.352-0.015-7.525-0.015-7.525c0-1.033-0.315-1.8-0.937-2.277
				c-0.544-0.416-1.325-0.617-2.393-0.617h-1.585l-2.439,0.364c-0.983,0.418-1.525,1.208-1.525,2.226v7.848
				c0,0-0.112-0.008-0.223-0.018c0-0.352-0.015-7.542-0.015-7.542c0-1.013,0.286-1.741,0.873-2.232
				c0.676-0.563,1.774-0.849,3.266-0.849h1.642l1.571,0.203l1.813,0.946L458.656,521.243z"/>
			<path enable-background="new    " d="M468.249,530.993c0,0.701-0.295,1.051-0.886,1.051h-0.625c-0.597,0-0.896-0.35-0.896-1.051
				v-7.873c0-0.506-0.241-0.879-0.725-1.12c-0.482-0.239-1.138-0.36-1.966-0.36h-1.588c-0.793,0-1.368,0.119-1.729,0.354
				c-0.447,0.289-0.67,0.786-0.67,1.494v7.506c0,0.701-0.296,1.051-0.892,1.051h-0.622c-0.596,0-0.892-0.35-0.892-1.051v-7.543
				c0-0.684-0.172-1.156-0.513-1.418s-0.92-0.393-1.732-0.393h-1.585c-0.906,0-1.58,0.094-2.016,0.279
				c-0.576,0.244-0.864,0.652-0.864,1.227v7.848c0,0.701-0.297,1.051-0.89,1.051h-0.627c-0.594,0-0.89-0.35-0.89-1.051v-7.56
				c0-1.343,0.421-2.363,1.262-3.064c0.88-0.733,2.199-1.102,3.961-1.102h1.642c0.735,0,1.366,0.085,1.9,0.255
				c0.533,0.169,1.071,0.448,1.618,0.838c0.44-0.313,0.928-0.563,1.47-0.75c0.661-0.229,1.347-0.343,2.061-0.343h1.663
				c1.675,0,2.941,0.368,3.797,1.102c0.82,0.71,1.231,1.73,1.231,3.064V530.993z"/>
		</g>
		<g>
			<path fill="#FFFFFF" d="M476.943,518.183c-1.995,0-3.62,0.434-4.829,1.287c-1.312,0.922-2.006,2.252-2.006,3.846v4.693
				c0,1.398,0.563,2.627,1.678,3.654c0.013,0.014,2.202,1.117,2.202,1.117c0.002,0,3.048,0.348,3.048,0.348h1.534
				c1.198,0,1.972-0.841,1.972-2.143v-0.255l-0.475-1.49c-0.25-0.298-0.714-0.653-1.497-0.653h-1.792
				c-0.892,0-1.375-0.178-1.656-0.44c2.242,0,10.481,0,10.481,0c0.638,0,1.174-0.353,1.473-0.967
				c-0.005,0.007,0.281-1.284,0.281-1.284v-3.079c0-1.505-0.682-2.744-1.974-3.583c-1.069-0.696-2.399-1.051-3.952-1.051H476.943z
				 M477.036,530.959l-2.474-0.271l-1.319-0.631c-0.646-0.596-0.966-1.271-0.966-2.049v-4.693c0-0.895,0.345-1.552,1.084-2.072
				c0.839-0.592,2.044-0.891,3.582-0.891h4.488c1.127,0,2.057,0.234,2.768,0.698c0.685,0.444,0.989,0.989,0.989,1.766v3.079
				c0,0-0.011,0.051-0.015,0.082c-0.801,0-12.592,0-12.592,0v1.084c0,1.111,0.409,3.694,4.196,3.694c0,0,1.265,0,1.586,0
				c0.005,0.113,0.009,0.229,0.009,0.229L477.036,530.959z"/>
			<path fill="#FFFFFF" d="M477.217,520.589l-2.883,0.404c-1.582,0.561-1.819,1.599-1.819,2.168v2.545h12.505v-2.646
				c0-0.569-0.279-1.371-1.61-1.957c-0.777-0.341-1.689-0.514-2.715-0.514H477.217z M475.063,523.036
				c0.004-0.002,2.154-0.277,2.154-0.277h3.478c0.725,0,1.345,0.11,1.843,0.33c0,0,0.214,0.123,0.313,0.182c0,0.063,0,0.154,0,0.268
				c-1.533,0-6.634,0-8.167,0c0-0.141,0-0.363,0-0.368C474.691,523.23,475.063,523.036,475.063,523.036z"/>
			<path enable-background="new    " d="M486.273,525.896c0,0.305-0.058,0.576-0.174,0.812c-0.114,0.236-0.279,0.354-0.496,0.354
				h-11.937c0,1.74,1.037,2.609,3.111,2.609h1.792c0.591,0,0.887,0.354,0.887,1.06v0.255c0,0.705-0.296,1.059-0.887,1.059h-1.534
				c-1.086,0-2.008-0.104-2.76-0.31c-0.754-0.208-1.338-0.495-1.756-0.867c-0.885-0.817-1.328-1.771-1.328-2.858v-4.693
				c0-1.248,0.515-2.234,1.547-2.959c1.029-0.727,2.431-1.089,4.204-1.089h4.488c1.347,0,2.467,0.292,3.361,0.875
				c0.986,0.642,1.48,1.533,1.48,2.674V525.896z M483.935,524.622v-1.563c0-0.361-0.321-0.683-0.961-0.965
				c-0.64-0.28-1.4-0.421-2.279-0.421h-3.478c-1.045,0-1.883,0.113-2.517,0.34c-0.735,0.261-1.102,0.643-1.102,1.147v1.461H483.935z
				"/>
		</g>
		<g>
			<path fill="#FFFFFF" d="M494.559,518.183c-2.179,0-3.774,0.381-4.873,1.164c-1.118,0.801-1.709,2.03-1.709,3.556v8.091
				c0,1.297,0.774,2.135,1.974,2.135h0.627c1.198,0,1.974-0.838,1.974-2.135v-8.113c0.06-0.006,2.029-0.156,2.029-0.156h3.914
				l1.906,0.16l0.047,8.109c0,1.297,0.775,2.135,1.976,2.135h0.623c1.201,0,1.977-0.838,1.977-2.135v-8.116
				c0-1.534-0.632-2.776-1.826-3.588c-1.095-0.743-2.637-1.106-4.715-1.106H494.559z M490.145,522.902
				c0-1.091,0.458-1.546,0.801-1.792c0.697-0.496,1.947-0.758,3.613-0.758h3.923c1.605,0,2.783,0.245,3.495,0.73
				c0.597,0.406,0.877,0.977,0.877,1.794c0,0,0,8.013,0,8.081c-0.1,0-0.125,0-0.223,0.001c0-0.384-0.015-8.091-0.015-8.091
				c0-0.971-0.558-1.715-1.527-2.041c-0.002,0-2.595-0.271-2.595-0.271h-3.914l-2.635,0.254c-0.995,0.326-1.563,1.08-1.563,2.07
				v8.113c0,0-0.112-0.008-0.222-0.018C490.16,530.622,490.145,522.902,490.145,522.902z"/>
			<path enable-background="new    " d="M503.938,530.993c0,0.701-0.296,1.051-0.892,1.051h-0.623c-0.595,0-0.892-0.35-0.892-1.051
				v-8.125c0-0.498-0.263-0.836-0.787-1.014c-0.429-0.143-1.176-0.215-2.25-0.215h-3.914c-1.118,0-1.885,0.068-2.302,0.203
				c-0.541,0.176-0.812,0.522-0.812,1.037v8.113c0,0.701-0.297,1.051-0.89,1.051h-0.627c-0.593,0-0.89-0.35-0.89-1.051v-8.091
				c0-1.183,0.417-2.073,1.254-2.673c0.9-0.641,2.315-0.962,4.244-0.962h3.923c1.837,0,3.205,0.306,4.104,0.919
				c0.9,0.611,1.352,1.508,1.352,2.69V530.993z"/>
		</g>
		<g>
			<path fill="#FFFFFF" d="M508.625,514.692c-1.199,0-1.972,0.838-1.972,2.133c0,0,0,0.816,0,1.555
				c-1.038,0.124-1.745,0.848-1.745,2.035v0.268c0,1.194,0.707,1.923,1.745,2.047c0,1.578,0,8.266,0,8.266
				c0,1.295,0.772,2.133,1.972,2.133h0.629c1.199,0,1.974-0.838,1.974-2.133c0,0,0-6.479,0-8.169c1.106,0,2.707,0,2.707,0
				c1.201,0,1.979-0.841,1.979-2.144v-0.268c0-1.293-0.777-2.131-1.979-2.131c0,0-1.601,0-2.707,0c0-0.713,0-1.459,0-1.459
				c0-1.295-0.774-2.133-1.974-2.133H508.625z M508.822,520.454v-3.629c0,0,0.112,0.01,0.222,0.02
				c0.003,0.318,0.016,2.524,0.016,2.524v1.085c0,0,4.32,0,4.676,0c0.005,0.114,0.009,0.229,0.009,0.229l-3.601-0.025h-1.084v10.338
				c0,0-0.112-0.01-0.223-0.018c0-0.355-0.015-10.32-0.015-10.32s-1.506,0-1.737,0c-0.004-0.119-0.009-0.242-0.009-0.242
				l0.661,0.039H508.822z"/>
			<path enable-background="new    " d="M506.891,521.741c-0.598,0-0.898-0.353-0.898-1.059v-0.268c0-0.696,0.301-1.046,0.898-1.046
				h0.847v-2.544c0-0.699,0.295-1.048,0.888-1.048h0.629c0.593,0,0.89,0.349,0.89,1.048v2.544h3.791c0.596,0,0.895,0.35,0.895,1.046
				v0.268c0,0.706-0.299,1.059-0.895,1.059h-3.791v9.254c0,0.699-0.297,1.049-0.89,1.049h-0.629c-0.593,0-0.888-0.35-0.888-1.049
				v-9.254H506.891z"/>
		</g>
	</g>
	<polygon fill="#FFCC18" points="291.445,365.708 289.454,375.991 307.529,373.822 309.521,363.539 	"/>
	<g>
		<path fill="none" d="M340.117,467.761h45.971c2.088,0,3.965-0.75,5.625-2.249c1.661-1.499,2.673-3.249,3.046-5.249l9.977-55.403
			c0.368-2.021-0.03-3.791-1.199-5.308s-2.8-2.279-4.889-2.279h-58.53"/>
		<path fill="#FFCC18" d="M431.554,375.863c-2.339-2.897-5.604-4.346-9.79-4.346H314.646l-4.597,25.726h6.101l-12.594,70.521h-6.101
			l-4.601,25.752h107.118c4.063,0,7.786-1.445,11.171-4.338c3.384-2.893,5.447-6.371,6.188-10.438l16.622-92.436
			C434.692,382.239,433.892,378.761,431.554,375.863z M404.735,404.859l-9.977,55.403c-0.373,2-1.385,3.75-3.046,5.249
			c-1.66,1.499-3.537,2.249-5.625,2.249h-56.646l12.59-70.488h56.615c2.089,0,3.72,0.763,4.889,2.279
			S405.104,402.839,404.735,404.859z"/>
	</g>
	<g>
		<path fill="#FFFFFF" enable-background="new    " d="M203.294,483.292c-2.232-7.107-12.702-10.148-23.386-6.794
			c-10.683,3.353-17.537,11.833-15.303,18.941c2.23,7.11,12.702,10.154,23.385,6.8C198.673,498.884,205.524,490.403,203.294,483.292
			z"/>
		<path fill="#1E88BC" d="M179.321,474.624c-6.979,2.19-12.761,6.593-15.466,11.775c-1.695,3.246-2.083,6.574-1.123,9.629
			c0.958,3.055,3.181,5.565,6.427,7.26c5.183,2.707,12.443,3.016,19.419,0.824c11.697-3.674,19.139-13.277,16.588-21.407l0,0
			C202.614,474.575,191.019,470.95,179.321,474.624z M170.977,499.808c-2.302-1.203-3.858-2.916-4.498-4.955
			c-0.642-2.041-0.345-4.333,0.857-6.635c2.233-4.281,7.153-7.961,13.16-9.846c9.471-2.975,19.05-0.453,20.924,5.508
			c0.219,0.699,0.324,1.418,0.324,2.15c0,5.518-5.982,11.709-14.343,14.335C181.398,502.251,175.257,502.042,170.977,499.808z"/>
	</g>
	<g>
		<path fill="#FFFFFF" enable-background="new    " d="M352.241,483.292c-2.232-7.107-12.699-10.148-23.383-6.794
			c-10.686,3.353-17.538,11.833-15.306,18.941c2.23,7.11,12.702,10.154,23.384,6.8C347.62,498.884,354.472,490.403,352.241,483.292z
			"/>
		<path fill="#FFCC18" d="M328.27,474.624c-6.977,2.19-12.76,6.592-15.466,11.773c-1.694,3.246-2.082,6.576-1.123,9.631
			c0.958,3.055,3.18,5.565,6.427,7.261c5.183,2.706,12.441,3.015,19.418,0.823c11.697-3.674,19.139-13.277,16.588-21.407l0,0
			C351.562,474.575,339.967,470.95,328.27,474.624z M319.924,499.808c-2.302-1.201-3.856-2.916-4.498-4.955
			c-0.64-2.041-0.344-4.335,0.859-6.638c2.234-4.279,7.155-7.96,13.162-9.843c9.468-2.975,19.05-0.449,20.922,5.508
			c0.218,0.699,0.324,1.418,0.324,2.15c0,5.518-5.983,11.709-14.346,14.335C330.343,502.251,324.205,502.042,319.924,499.808z"/>
	</g>
</g>
</svg>
